<svg id="visual" viewBox="0 0 960 540" width="960" height="540" xmlns="http://www.w3.org/2000/svg" xmlns:xlink="http://www.w3.org/1999/xlink" version="1.1"><path d="M0 77L26.7 79.7C53.3 82.3 106.7 87.7 160 85.8C213.3 84 266.7 75 320 63.3C373.3 51.7 426.7 37.3 480 35.5C533.3 33.7 586.7 44.3 640 52.3C693.3 60.3 746.7 65.7 800 63C853.3 60.3 906.7 49.7 933.3 44.3L960 39L960 0L933.3 0C906.7 0 853.3 0 800 0C746.7 0 693.3 0 640 0C586.7 0 533.3 0 480 0C426.7 0 373.3 0 320 0C266.7 0 213.3 0 160 0C106.7 0 53.3 0 26.7 0L0 0Z" fill="#143c63"></path><path d="M0 222L26.7 216.7C53.3 211.3 106.7 200.7 160 217.8C213.3 235 266.7 280 320 278.2C373.3 276.3 426.7 227.7 480 215C533.3 202.3 586.7 225.7 640 234.7C693.3 243.7 746.7 238.3 800 211.3C853.3 184.3 906.7 135.7 933.3 111.3L960 87L960 37L933.3 42.3C906.7 47.7 853.3 58.3 800 61C746.7 63.7 693.3 58.3 640 50.3C586.7 42.3 533.3 31.7 480 33.5C426.7 35.3 373.3 49.7 320 61.3C266.7 73 213.3 82 160 83.8C106.7 85.7 53.3 80.3 26.7 77.7L0 75Z" fill="#1a4d81"></path><path d="M0 293L26.7 288.5C53.3 284 106.7 275 160 296.5C213.3 318 266.7 370 320 385.2C373.3 400.3 426.7 378.7 480 363.3C533.3 348 586.7 339 640 335.5C693.3 332 746.7 334 800 324.2C853.3 314.3 906.7 292.7 933.3 281.8L960 271L960 85L933.3 109.3C906.7 133.7 853.3 182.3 800 209.3C746.7 236.3 693.3 241.7 640 232.7C586.7 223.7 533.3 200.3 480 213C426.7 225.7 373.3 274.3 320 276.2C266.7 278 213.3 233 160 215.8C106.7 198.7 53.3 209.3 26.7 214.7L0 220Z" fill="#3c699d"></path><path d="M0 314L26.7 320.3C53.3 326.7 106.7 339.3 160 360C213.3 380.7 266.7 409.3 320 418.3C373.3 427.3 426.7 416.7 480 406.8C533.3 397 586.7 388 640 384.3C693.3 380.7 746.7 382.3 800 374.2C853.3 366 906.7 348 933.3 339L960 330L960 269L933.3 279.8C906.7 290.7 853.3 312.3 800 322.2C746.7 332 693.3 330 640 333.5C586.7 337 533.3 346 480 361.3C426.7 376.7 373.3 398.3 320 383.2C266.7 368 213.3 316 160 294.5C106.7 273 53.3 282 26.7 286.5L0 291Z" fill="#4a75a8"></path><path d="M0 347L26.7 354.2C53.3 361.3 106.7 375.7 160 392.7C213.3 409.7 266.7 429.3 320 439.2C373.3 449 426.7 449 480 444.5C533.3 440 586.7 431 640 432C693.3 433 746.7 444 800 433.2C853.3 422.3 906.7 389.7 933.3 373.3L960 357L960 328L933.3 337C906.7 346 853.3 364 800 372.2C746.7 380.3 693.3 378.7 640 382.3C586.7 386 533.3 395 480 404.8C426.7 414.7 373.3 425.3 320 416.3C266.7 407.3 213.3 378.7 160 358C106.7 337.3 53.3 324.7 26.7 318.3L0 312Z" fill="#3c699d"></path><path d="M0 422L26.7 428.3C53.3 434.7 106.7 447.3 160 457.3C213.3 467.3 266.7 474.7 320 480C373.3 485.3 426.7 488.7 480 491.3C533.3 494 586.7 496 640 494.3C693.3 492.7 746.7 487.3 800 474.7C853.3 462 906.7 442 933.3 432L960 422L960 355L933.3 371.3C906.7 387.7 853.3 420.3 800 431.2C746.7 442 693.3 431 640 430C586.7 429 533.3 438 480 442.5C426.7 447 373.3 447 320 437.2C266.7 427.3 213.3 407.7 160 390.7C106.7 373.7 53.3 359.3 26.7 352.2L0 345Z" fill="#1a4d81"></path><path d="M0 541L26.7 541C53.3 541 106.7 541 160 541C213.3 541 266.7 541 320 541C373.3 541 426.7 541 480 541C533.3 541 586.7 541 640 541C693.3 541 746.7 541 800 541C853.3 541 906.7 541 933.3 541L960 541L960 420L933.3 430C906.7 440 853.3 460 800 472.7C746.7 485.3 693.3 490.7 640 492.3C586.7 494 533.3 492 480 489.3C426.7 486.7 373.3 483.3 320 478C266.7 472.7 213.3 465.3 160 455.3C106.7 445.3 53.3 432.7 26.7 426.3L0 420Z" fill="#143c63"></path></svg>